<?xml version="1.0" encoding="utf-8"?>
<!-- Generator: Adobe Illustrator 26.0.1, SVG Export Plug-In . SVG Version: 6.00 Build 0)  -->
<svg version="1.1" id="Слой_2" xmlns="http://www.w3.org/2000/svg" xmlns:xlink="http://www.w3.org/1999/xlink" x="0px" y="0px"
	 viewBox="0 0 128 128" style="enable-background:new 0 0 128 128;" xml:space="preserve">
<style type="text/css">
	.st0{fill:#886FD8;}
</style>
<g>
	<g>
		<path class="st0" d="M41.3,65.8C41.3,65.8,41.3,65.8,41.3,65.8C41.4,65.9,41.3,65.9,41.3,65.8z"/>
		<path class="st0" d="M19.7,67c-0.9,4.3-2.9,13.1-2.4,18.5c0.5,5.4,6.3,11.9,6.6,16.3c0.3,4.4,2.2,24.9,3.3,25.8
			c1.1,0.9,20.3,0,20.3,0s-2.5-22.4-3.7-25.9c-1.2-3.5-8-34.9-4.6-38.6L21.4,51.9C21.4,51.9,20.6,62.8,19.7,67z"/>
		<path class="st0" d="M86.7,65.9C86.7,65.8,86.7,65.8,86.7,65.9C86.7,65.9,86.6,65.9,86.7,65.9z"/>
		<path class="st0" d="M84.3,101.7c-1.2,3.5-3.7,25.9-3.7,25.9s19.2,0.9,20.3,0c1.1-0.9,3-21.3,3.3-25.8c0.3-4.4,6.1-10.9,6.6-16.3
			c0.5-5.4-1.5-14.2-2.4-18.5c-0.9-4.3-1.7-15.1-1.7-15.1L88.8,63C92.2,66.8,85.5,98.2,84.3,101.7z"/>
		<path class="st0" d="M123.9,36.4c-2.1,0.3-18,1.1-18,1.1c-0.3-9.4-5.8-36.3-13.3-37.4C85-1,82.1,5.7,82.1,5.7
			c-7-4.9-15.6-5.1-17.5-5.1h-1.1c-0.2,0-0.4,0-0.6,0h0l0,0c-2.8,0-10.5,0.6-16.9,5.1c0,0-2.9-6.6-10.4-5.6
			c-7.5,1.1-13,28-13.3,37.4c0,0-15.9-0.8-18-1.1c-2.1-0.3-2.8,0-1.9,1.3c0.6,0.8,10.2,8.8,19.2,14.2l0.2,0.1l17.6,11l0,0
			c0.9,1.4,1.8,2.5,2.1,2.8c-0.5-0.8-0.9-6.2-0.9-6.2l0,0c1,2.9,3,6.9,6.4,9.8c5.1,4.3,13.8,8.5,16.8,9.5l0,0.2c0.1,0,0.2,0,0.4-0.1
			c0.2,0.1,0.3,0.1,0.4,0.1l0-0.2c3-1,11.6-5.3,16.8-9.5c3.5-2.9,5.4-6.9,6.4-9.8l0,0c0,0-0.4,5.5-0.9,6.2c0.2-0.3,1.1-1.4,2.1-2.8
			l0,0l17.6-11l0.2-0.1c9-5.4,18.6-13.4,19.2-14.2C126.7,36.4,126,36.2,123.9,36.4z"/>
	</g>
</g>
</svg>
